<svg xmlns="http://www.w3.org/2000/svg" width="785" height="145"
     viewBox="0 0 785 145" font-family="ui-monospace, SFMono-Regular, Menlo, Consolas, monospace" role="img"
     aria-label="267 contributions in the last year">
  <style>
    .bg { fill: #0d1117; stroke: #21262d; stroke-width: 1; }
    .c { opacity: 0; transform-box: fill-box; transform-origin: center;
          animation: pop .5s cubic-bezier(.2,.8,.2,1) both; }
    @keyframes pop {
      0%   { opacity: 0; transform: translate(-6px,-6px) scale(.4); }
      70%  { opacity: 1; }
      100% { opacity: 1; transform: none; }
    }
.d0{animation-delay:0.000s}
.d1{animation-delay:0.035s}
.d2{animation-delay:0.070s}
.d3{animation-delay:0.105s}
.d4{animation-delay:0.140s}
.d5{animation-delay:0.175s}
.d6{animation-delay:0.210s}
.d7{animation-delay:0.245s}
.d8{animation-delay:0.280s}
.d9{animation-delay:0.315s}
.d10{animation-delay:0.350s}
.d11{animation-delay:0.385s}
.d12{animation-delay:0.420s}
.d13{animation-delay:0.455s}
.d14{animation-delay:0.490s}
.d15{animation-delay:0.525s}
.d16{animation-delay:0.560s}
.d17{animation-delay:0.595s}
.d18{animation-delay:0.630s}
.d19{animation-delay:0.665s}
.d20{animation-delay:0.700s}
.d21{animation-delay:0.735s}
.d22{animation-delay:0.770s}
.d23{animation-delay:0.805s}
.d24{animation-delay:0.840s}
.d25{animation-delay:0.875s}
.d26{animation-delay:0.910s}
.d27{animation-delay:0.945s}
.d28{animation-delay:0.980s}
.d29{animation-delay:1.015s}
.d30{animation-delay:1.050s}
.d31{animation-delay:1.085s}
.d32{animation-delay:1.120s}
.d33{animation-delay:1.155s}
.d34{animation-delay:1.190s}
.d35{animation-delay:1.225s}
.d36{animation-delay:1.260s}
.d37{animation-delay:1.295s}
.d38{animation-delay:1.330s}
.d39{animation-delay:1.365s}
.d40{animation-delay:1.400s}
.d41{animation-delay:1.435s}
.d42{animation-delay:1.470s}
.d43{animation-delay:1.505s}
.d44{animation-delay:1.540s}
.d45{animation-delay:1.575s}
.d46{animation-delay:1.610s}
.d47{animation-delay:1.645s}
.d48{animation-delay:1.680s}
.d49{animation-delay:1.715s}
.d50{animation-delay:1.750s}
.d51{animation-delay:1.785s}
.d52{animation-delay:1.820s}
.d53{animation-delay:1.855s}
.d54{animation-delay:1.890s}
.d55{animation-delay:1.925s}
.d56{animation-delay:1.960s}
.d57{animation-delay:1.995s}
.d58{animation-delay:2.030s}
    .mlabel, .wlabel, .legend { fill: #7d8590; font-size: 10px; }
    .foot { fill: #7d8590; font-size: 12px; }
    .foot .num { fill: #e6edf3; font-weight: 700; }
    .foot .dim { fill: #57606a; }
    @media (prefers-reduced-motion: reduce) {
      .c { animation: none; opacity: 1; transform: none; }
    }
  </style>
  <rect class="bg" x="0.5" y="0.5" width="784" height="144" rx="10"/>
  <text x="30" y="16" class="mlabel">Jul</text><text x="72" y="16" class="mlabel">Aug</text><text x="128" y="16" class="mlabel">Sep</text><text x="198" y="16" class="mlabel">Oct</text><text x="254" y="16" class="mlabel">Nov</text><text x="310" y="16" class="mlabel">Dec</text><text x="380" y="16" class="mlabel">Jan</text><text x="436" y="16" class="mlabel">Feb</text><text x="492" y="16" class="mlabel">Mar</text><text x="562" y="16" class="mlabel">Apr</text><text x="618" y="16" class="mlabel">May</text><text x="674" y="16" class="mlabel">Jun</text><text x="744" y="16" class="mlabel">Jul</text>
  <text x="0" y="47" class="wlabel">Mon</text><text x="0" y="75" class="wlabel">Wed</text><text x="0" y="103" class="wlabel">Fri</text>
  <rect class="c d0" x="30" y="24" width="11" height="11" rx="2.5" fill="#161b22"><title>0 on 2025-07-13</title></rect><rect class="c d1" x="30" y="38" width="11" height="11" rx="2.5" fill="#161b22"><title>0 on 2025-07-14</title></rect><rect class="c d2" x="30" y="52" width="11" height="11" rx="2.5" fill="#161b22"><title>0 on 2025-07-15</title></rect><rect class="c d3" x="30" y="66" width="11" height="11" rx="2.5" fill="#161b22"><title>0 on 2025-07-16</title></rect><rect class="c d4" x="30" y="80" width="11" height="11" rx="2.5" fill="#161b22"><title>0 on 2025-07-17</title></rect><rect class="c d5" x="30" y="94" width="11" height="11" rx="2.5" fill="#161b22"><title>0 on 2025-07-18</title></rect><rect class="c d6" x="30" y="108" width="11" height="11" rx="2.5" fill="#161b22"><title>0 on 2025-07-19</title></rect><rect class="c d1" x="44" y="24" width="11" height="11" rx="2.5" fill="#161b22"><title>0 on 2025-07-20</title></rect><rect class="c d2" x="44" y="38" width="11" height="11" rx="2.5" fill="#161b22"><title>0 on 2025-07-21</title></rect><rect class="c d3" x="44" y="52" width="11" height="11" rx="2.5" fill="#161b22"><title>0 on 2025-07-22</title></rect><rect class="c d4" x="44" y="66" width="11" height="11" rx="2.5" fill="#161b22"><title>0 on 2025-07-23</title></rect><rect class="c d5" x="44" y="80" width="11" height="11" rx="2.5" fill="#161b22"><title>0 on 2025-07-24</title></rect><rect class="c d6" x="44" y="94" width="11" height="11" rx="2.5" fill="#161b22"><title>0 on 2025-07-25</title></rect><rect class="c d7" x="44" y="108" width="11" height="11" rx="2.5" fill="#161b22"><title>0 on 2025-07-26</title></rect><rect class="c d2" x="58" y="24" width="11" height="11" rx="2.5" fill="#161b22"><title>0 on 2025-07-27</title></rect><rect class="c d3" x="58" y="38" width="11" height="11" rx="2.5" fill="#161b22"><title>0 on 2025-07-28</title></rect><rect class="c d4" x="58" y="52" width="11" height="11" rx="2.5" fill="#161b22"><title>0 on 2025-07-29</title></rect><rect class="c d5" x="58" y="66" width="11" height="11" rx="2.5" fill="#161b22"><title>0 on 2025-07-30</title></rect><rect class="c d6" x="58" y="80" width="11" height="11" rx="2.5" fill="#161b22"><title>0 on 2025-07-31</title></rect><rect class="c d7" x="58" y="94" width="11" height="11" rx="2.5" fill="#161b22"><title>0 on 2025-08-01</title></rect><rect class="c d8" x="58" y="108" width="11" height="11" rx="2.5" fill="#161b22"><title>0 on 2025-08-02</title></rect><rect class="c d3" x="72" y="24" width="11" height="11" rx="2.5" fill="#161b22"><title>0 on 2025-08-03</title></rect><rect class="c d4" x="72" y="38" width="11" height="11" rx="2.5" fill="#161b22"><title>0 on 2025-08-04</title></rect><rect class="c d5" x="72" y="52" width="11" height="11" rx="2.5" fill="#161b22"><title>0 on 2025-08-05</title></rect><rect class="c d6" x="72" y="66" width="11" height="11" rx="2.5" fill="#161b22"><title>0 on 2025-08-06</title></rect><rect class="c d7" x="72" y="80" width="11" height="11" rx="2.5" fill="#161b22"><title>0 on 2025-08-07</title></rect><rect class="c d8" x="72" y="94" width="11" height="11" rx="2.5" fill="#161b22"><title>0 on 2025-08-08</title></rect><rect class="c d9" x="72" y="108" width="11" height="11" rx="2.5" fill="#161b22"><title>0 on 2025-08-09</title></rect><rect class="c d4" x="86" y="24" width="11" height="11" rx="2.5" fill="#161b22"><title>0 on 2025-08-10</title></rect><rect class="c d5" x="86" y="38" width="11" height="11" rx="2.5" fill="#161b22"><title>0 on 2025-08-11</title></rect><rect class="c d6" x="86" y="52" width="11" height="11" rx="2.5" fill="#161b22"><title>0 on 2025-08-12</title></rect><rect class="c d7" x="86" y="66" width="11" height="11" rx="2.5" fill="#161b22"><title>0 on 2025-08-13</title></rect><rect class="c d8" x="86" y="80" width="11" height="11" rx="2.5" fill="#161b22"><title>0 on 2025-08-14</title></rect><rect class="c d9" x="86" y="94" width="11" height="11" rx="2.5" fill="#161b22"><title>0 on 2025-08-15</title></rect><rect class="c d10" x="86" y="108" width="11" height="11" rx="2.5" fill="#161b22"><title>0 on 2025-08-16</title></rect><rect class="c d5" x="100" y="24" width="11" height="11" rx="2.5" fill="#161b22"><title>0 on 2025-08-17</title></rect><rect class="c d6" x="100" y="38" width="11" height="11" rx="2.5" fill="#161b22"><title>0 on 2025-08-18</title></rect><rect class="c d7" x="100" y="52" width="11" height="11" rx="2.5" fill="#161b22"><title>0 on 2025-08-19</title></rect><rect class="c d8" x="100" y="66" width="11" height="11" rx="2.5" fill="#161b22"><title>0 on 2025-08-20</title></rect><rect class="c d9" x="100" y="80" width="11" height="11" rx="2.5" fill="#161b22"><title>0 on 2025-08-21</title></rect><rect class="c d10" x="100" y="94" width="11" height="11" rx="2.5" fill="#161b22"><title>0 on 2025-08-22</title></rect><rect class="c d11" x="100" y="108" width="11" height="11" rx="2.5" fill="#161b22"><title>0 on 2025-08-23</title></rect><rect class="c d6" x="114" y="24" width="11" height="11" rx="2.5" fill="#161b22"><title>0 on 2025-08-24</title></rect><rect class="c d7" x="114" y="38" width="11" height="11" rx="2.5" fill="#161b22"><title>0 on 2025-08-25</title></rect><rect class="c d8" x="114" y="52" width="11" height="11" rx="2.5" fill="#161b22"><title>0 on 2025-08-26</title></rect><rect class="c d9" x="114" y="66" width="11" height="11" rx="2.5" fill="#161b22"><title>0 on 2025-08-27</title></rect><rect class="c d10" x="114" y="80" width="11" height="11" rx="2.5" fill="#161b22"><title>0 on 2025-08-28</title></rect><rect class="c d11" x="114" y="94" width="11" height="11" rx="2.5" fill="#161b22"><title>0 on 2025-08-29</title></rect><rect class="c d12" x="114" y="108" width="11" height="11" rx="2.5" fill="#161b22"><title>0 on 2025-08-30</title></rect><rect class="c d7" x="128" y="24" width="11" height="11" rx="2.5" fill="#161b22"><title>0 on 2025-08-31</title></rect><rect class="c d8" x="128" y="38" width="11" height="11" rx="2.5" fill="#161b22"><title>0 on 2025-09-01</title></rect><rect class="c d9" x="128" y="52" width="11" height="11" rx="2.5" fill="#161b22"><title>0 on 2025-09-02</title></rect><rect class="c d10" x="128" y="66" width="11" height="11" rx="2.5" fill="#161b22"><title>0 on 2025-09-03</title></rect><rect class="c d11" x="128" y="80" width="11" height="11" rx="2.5" fill="#161b22"><title>0 on 2025-09-04</title></rect><rect class="c d12" x="128" y="94" width="11" height="11" rx="2.5" fill="#161b22"><title>0 on 2025-09-05</title></rect><rect class="c d13" x="128" y="108" width="11" height="11" rx="2.5" fill="#161b22"><title>0 on 2025-09-06</title></rect><rect class="c d8" x="142" y="24" width="11" height="11" rx="2.5" fill="#161b22"><title>0 on 2025-09-07</title></rect><rect class="c d9" x="142" y="38" width="11" height="11" rx="2.5" fill="#161b22"><title>0 on 2025-09-08</title></rect><rect class="c d10" x="142" y="52" width="11" height="11" rx="2.5" fill="#161b22"><title>0 on 2025-09-09</title></rect><rect class="c d11" x="142" y="66" width="11" height="11" rx="2.5" fill="#161b22"><title>0 on 2025-09-10</title></rect><rect class="c d12" x="142" y="80" width="11" height="11" rx="2.5" fill="#161b22"><title>0 on 2025-09-11</title></rect><rect class="c d13" x="142" y="94" width="11" height="11" rx="2.5" fill="#161b22"><title>0 on 2025-09-12</title></rect><rect class="c d14" x="142" y="108" width="11" height="11" rx="2.5" fill="#161b22"><title>0 on 2025-09-13</title></rect><rect class="c d9" x="156" y="24" width="11" height="11" rx="2.5" fill="#161b22"><title>0 on 2025-09-14</title></rect><rect class="c d10" x="156" y="38" width="11" height="11" rx="2.5" fill="#161b22"><title>0 on 2025-09-15</title></rect><rect class="c d11" x="156" y="52" width="11" height="11" rx="2.5" fill="#161b22"><title>0 on 2025-09-16</title></rect><rect class="c d12" x="156" y="66" width="11" height="11" rx="2.5" fill="#161b22"><title>0 on 2025-09-17</title></rect><rect class="c d13" x="156" y="80" width="11" height="11" rx="2.5" fill="#161b22"><title>0 on 2025-09-18</title></rect><rect class="c d14" x="156" y="94" width="11" height="11" rx="2.5" fill="#161b22"><title>0 on 2025-09-19</title></rect><rect class="c d15" x="156" y="108" width="11" height="11" rx="2.5" fill="#0e4429"><title>1 on 2025-09-20</title></rect><rect class="c d10" x="170" y="24" width="11" height="11" rx="2.5" fill="#0e4429"><title>1 on 2025-09-21</title></rect><rect class="c d11" x="170" y="38" width="11" height="11" rx="2.5" fill="#161b22"><title>0 on 2025-09-22</title></rect><rect class="c d12" x="170" y="52" width="11" height="11" rx="2.5" fill="#161b22"><title>0 on 2025-09-23</title></rect><rect class="c d13" x="170" y="66" width="11" height="11" rx="2.5" fill="#161b22"><title>0 on 2025-09-24</title></rect><rect class="c d14" x="170" y="80" width="11" height="11" rx="2.5" fill="#161b22"><title>0 on 2025-09-25</title></rect><rect class="c d15" x="170" y="94" width="11" height="11" rx="2.5" fill="#161b22"><title>0 on 2025-09-26</title></rect><rect class="c d16" x="170" y="108" width="11" height="11" rx="2.5" fill="#161b22"><title>0 on 2025-09-27</title></rect><rect class="c d11" x="184" y="24" width="11" height="11" rx="2.5" fill="#161b22"><title>0 on 2025-09-28</title></rect><rect class="c d12" x="184" y="38" width="11" height="11" rx="2.5" fill="#161b22"><title>0 on 2025-09-29</title></rect><rect class="c d13" x="184" y="52" width="11" height="11" rx="2.5" fill="#161b22"><title>0 on 2025-09-30</title></rect><rect class="c d14" x="184" y="66" width="11" height="11" rx="2.5" fill="#161b22"><title>0 on 2025-10-01</title></rect><rect class="c d15" x="184" y="80" width="11" height="11" rx="2.5" fill="#161b22"><title>0 on 2025-10-02</title></rect><rect class="c d16" x="184" y="94" width="11" height="11" rx="2.5" fill="#161b22"><title>0 on 2025-10-03</title></rect><rect class="c d17" x="184" y="108" width="11" height="11" rx="2.5" fill="#161b22"><title>0 on 2025-10-04</title></rect><rect class="c d12" x="198" y="24" width="11" height="11" rx="2.5" fill="#161b22"><title>0 on 2025-10-05</title></rect><rect class="c d13" x="198" y="38" width="11" height="11" rx="2.5" fill="#161b22"><title>0 on 2025-10-06</title></rect><rect class="c d14" x="198" y="52" width="11" height="11" rx="2.5" fill="#161b22"><title>0 on 2025-10-07</title></rect><rect class="c d15" x="198" y="66" width="11" height="11" rx="2.5" fill="#161b22"><title>0 on 2025-10-08</title></rect><rect class="c d16" x="198" y="80" width="11" height="11" rx="2.5" fill="#161b22"><title>0 on 2025-10-09</title></rect><rect class="c d17" x="198" y="94" width="11" height="11" rx="2.5" fill="#161b22"><title>0 on 2025-10-10</title></rect><rect class="c d18" x="198" y="108" width="11" height="11" rx="2.5" fill="#161b22"><title>0 on 2025-10-11</title></rect><rect class="c d13" x="212" y="24" width="11" height="11" rx="2.5" fill="#161b22"><title>0 on 2025-10-12</title></rect><rect class="c d14" x="212" y="38" width="11" height="11" rx="2.5" fill="#0e4429"><title>2 on 2025-10-13</title></rect><rect class="c d15" x="212" y="52" width="11" height="11" rx="2.5" fill="#161b22"><title>0 on 2025-10-14</title></rect><rect class="c d16" x="212" y="66" width="11" height="11" rx="2.5" fill="#161b22"><title>0 on 2025-10-15</title></rect><rect class="c d17" x="212" y="80" width="11" height="11" rx="2.5" fill="#161b22"><title>0 on 2025-10-16</title></rect><rect class="c d18" x="212" y="94" width="11" height="11" rx="2.5" fill="#161b22"><title>0 on 2025-10-17</title></rect><rect class="c d19" x="212" y="108" width="11" height="11" rx="2.5" fill="#161b22"><title>0 on 2025-10-18</title></rect><rect class="c d14" x="226" y="24" width="11" height="11" rx="2.5" fill="#161b22"><title>0 on 2025-10-19</title></rect><rect class="c d15" x="226" y="38" width="11" height="11" rx="2.5" fill="#161b22"><title>0 on 2025-10-20</title></rect><rect class="c d16" x="226" y="52" width="11" height="11" rx="2.5" fill="#161b22"><title>0 on 2025-10-21</title></rect><rect class="c d17" x="226" y="66" width="11" height="11" rx="2.5" fill="#161b22"><title>0 on 2025-10-22</title></rect><rect class="c d18" x="226" y="80" width="11" height="11" rx="2.5" fill="#161b22"><title>0 on 2025-10-23</title></rect><rect class="c d19" x="226" y="94" width="11" height="11" rx="2.5" fill="#161b22"><title>0 on 2025-10-24</title></rect><rect class="c d20" x="226" y="108" width="11" height="11" rx="2.5" fill="#161b22"><title>0 on 2025-10-25</title></rect><rect class="c d15" x="240" y="24" width="11" height="11" rx="2.5" fill="#161b22"><title>0 on 2025-10-26</title></rect><rect class="c d16" x="240" y="38" width="11" height="11" rx="2.5" fill="#161b22"><title>0 on 2025-10-27</title></rect><rect class="c d17" x="240" y="52" width="11" height="11" rx="2.5" fill="#161b22"><title>0 on 2025-10-28</title></rect><rect class="c d18" x="240" y="66" width="11" height="11" rx="2.5" fill="#161b22"><title>0 on 2025-10-29</title></rect><rect class="c d19" x="240" y="80" width="11" height="11" rx="2.5" fill="#161b22"><title>0 on 2025-10-30</title></rect><rect class="c d20" x="240" y="94" width="11" height="11" rx="2.5" fill="#161b22"><title>0 on 2025-10-31</title></rect><rect class="c d21" x="240" y="108" width="11" height="11" rx="2.5" fill="#161b22"><title>0 on 2025-11-01</title></rect><rect class="c d16" x="254" y="24" width="11" height="11" rx="2.5" fill="#161b22"><title>0 on 2025-11-02</title></rect><rect class="c d17" x="254" y="38" width="11" height="11" rx="2.5" fill="#161b22"><title>0 on 2025-11-03</title></rect><rect class="c d18" x="254" y="52" width="11" height="11" rx="2.5" fill="#161b22"><title>0 on 2025-11-04</title></rect><rect class="c d19" x="254" y="66" width="11" height="11" rx="2.5" fill="#161b22"><title>0 on 2025-11-05</title></rect><rect class="c d20" x="254" y="80" width="11" height="11" rx="2.5" fill="#161b22"><title>0 on 2025-11-06</title></rect><rect class="c d21" x="254" y="94" width="11" height="11" rx="2.5" fill="#161b22"><title>0 on 2025-11-07</title></rect><rect class="c d22" x="254" y="108" width="11" height="11" rx="2.5" fill="#161b22"><title>0 on 2025-11-08</title></rect><rect class="c d17" x="268" y="24" width="11" height="11" rx="2.5" fill="#161b22"><title>0 on 2025-11-09</title></rect><rect class="c d18" x="268" y="38" width="11" height="11" rx="2.5" fill="#161b22"><title>0 on 2025-11-10</title></rect><rect class="c d19" x="268" y="52" width="11" height="11" rx="2.5" fill="#161b22"><title>0 on 2025-11-11</title></rect><rect class="c d20" x="268" y="66" width="11" height="11" rx="2.5" fill="#161b22"><title>0 on 2025-11-12</title></rect><rect class="c d21" x="268" y="80" width="11" height="11" rx="2.5" fill="#161b22"><title>0 on 2025-11-13</title></rect><rect class="c d22" x="268" y="94" width="11" height="11" rx="2.5" fill="#161b22"><title>0 on 2025-11-14</title></rect><rect class="c d23" x="268" y="108" width="11" height="11" rx="2.5" fill="#161b22"><title>0 on 2025-11-15</title></rect><rect class="c d18" x="282" y="24" width="11" height="11" rx="2.5" fill="#161b22"><title>0 on 2025-11-16</title></rect><rect class="c d19" x="282" y="38" width="11" height="11" rx="2.5" fill="#161b22"><title>0 on 2025-11-17</title></rect><rect class="c d20" x="282" y="52" width="11" height="11" rx="2.5" fill="#161b22"><title>0 on 2025-11-18</title></rect><rect class="c d21" x="282" y="66" width="11" height="11" rx="2.5" fill="#161b22"><title>0 on 2025-11-19</title></rect><rect class="c d22" x="282" y="80" width="11" height="11" rx="2.5" fill="#161b22"><title>0 on 2025-11-20</title></rect><rect class="c d23" x="282" y="94" width="11" height="11" rx="2.5" fill="#161b22"><title>0 on 2025-11-21</title></rect><rect class="c d24" x="282" y="108" width="11" height="11" rx="2.5" fill="#161b22"><title>0 on 2025-11-22</title></rect><rect class="c d19" x="296" y="24" width="11" height="11" rx="2.5" fill="#161b22"><title>0 on 2025-11-23</title></rect><rect class="c d20" x="296" y="38" width="11" height="11" rx="2.5" fill="#161b22"><title>0 on 2025-11-24</title></rect><rect class="c d21" x="296" y="52" width="11" height="11" rx="2.5" fill="#161b22"><title>0 on 2025-11-25</title></rect><rect class="c d22" x="296" y="66" width="11" height="11" rx="2.5" fill="#161b22"><title>0 on 2025-11-26</title></rect><rect class="c d23" x="296" y="80" width="11" height="11" rx="2.5" fill="#161b22"><title>0 on 2025-11-27</title></rect><rect class="c d24" x="296" y="94" width="11" height="11" rx="2.5" fill="#161b22"><title>0 on 2025-11-28</title></rect><rect class="c d25" x="296" y="108" width="11" height="11" rx="2.5" fill="#161b22"><title>0 on 2025-11-29</title></rect><rect class="c d20" x="310" y="24" width="11" height="11" rx="2.5" fill="#161b22"><title>0 on 2025-11-30</title></rect><rect class="c d21" x="310" y="38" width="11" height="11" rx="2.5" fill="#161b22"><title>0 on 2025-12-01</title></rect><rect class="c d22" x="310" y="52" width="11" height="11" rx="2.5" fill="#161b22"><title>0 on 2025-12-02</title></rect><rect class="c d23" x="310" y="66" width="11" height="11" rx="2.5" fill="#161b22"><title>0 on 2025-12-03</title></rect><rect class="c d24" x="310" y="80" width="11" height="11" rx="2.5" fill="#161b22"><title>0 on 2025-12-04</title></rect><rect class="c d25" x="310" y="94" width="11" height="11" rx="2.5" fill="#161b22"><title>0 on 2025-12-05</title></rect><rect class="c d26" x="310" y="108" width="11" height="11" rx="2.5" fill="#161b22"><title>0 on 2025-12-06</title></rect><rect class="c d21" x="324" y="24" width="11" height="11" rx="2.5" fill="#161b22"><title>0 on 2025-12-07</title></rect><rect class="c d22" x="324" y="38" width="11" height="11" rx="2.5" fill="#161b22"><title>0 on 2025-12-08</title></rect><rect class="c d23" x="324" y="52" width="11" height="11" rx="2.5" fill="#161b22"><title>0 on 2025-12-09</title></rect><rect class="c d24" x="324" y="66" width="11" height="11" rx="2.5" fill="#161b22"><title>0 on 2025-12-10</title></rect><rect class="c d25" x="324" y="80" width="11" height="11" rx="2.5" fill="#161b22"><title>0 on 2025-12-11</title></rect><rect class="c d26" x="324" y="94" width="11" height="11" rx="2.5" fill="#161b22"><title>0 on 2025-12-12</title></rect><rect class="c d27" x="324" y="108" width="11" height="11" rx="2.5" fill="#161b22"><title>0 on 2025-12-13</title></rect><rect class="c d22" x="338" y="24" width="11" height="11" rx="2.5" fill="#161b22"><title>0 on 2025-12-14</title></rect><rect class="c d23" x="338" y="38" width="11" height="11" rx="2.5" fill="#161b22"><title>0 on 2025-12-15</title></rect><rect class="c d24" x="338" y="52" width="11" height="11" rx="2.5" fill="#161b22"><title>0 on 2025-12-16</title></rect><rect class="c d25" x="338" y="66" width="11" height="11" rx="2.5" fill="#161b22"><title>0 on 2025-12-17</title></rect><rect class="c d26" x="338" y="80" width="11" height="11" rx="2.5" fill="#161b22"><title>0 on 2025-12-18</title></rect><rect class="c d27" x="338" y="94" width="11" height="11" rx="2.5" fill="#161b22"><title>0 on 2025-12-19</title></rect><rect class="c d28" x="338" y="108" width="11" height="11" rx="2.5" fill="#161b22"><title>0 on 2025-12-20</title></rect><rect class="c d23" x="352" y="24" width="11" height="11" rx="2.5" fill="#161b22"><title>0 on 2025-12-21</title></rect><rect class="c d24" x="352" y="38" width="11" height="11" rx="2.5" fill="#161b22"><title>0 on 2025-12-22</title></rect><rect class="c d25" x="352" y="52" width="11" height="11" rx="2.5" fill="#161b22"><title>0 on 2025-12-23</title></rect><rect class="c d26" x="352" y="66" width="11" height="11" rx="2.5" fill="#161b22"><title>0 on 2025-12-24</title></rect><rect class="c d27" x="352" y="80" width="11" height="11" rx="2.5" fill="#161b22"><title>0 on 2025-12-25</title></rect><rect class="c d28" x="352" y="94" width="11" height="11" rx="2.5" fill="#161b22"><title>0 on 2025-12-26</title></rect><rect class="c d29" x="352" y="108" width="11" height="11" rx="2.5" fill="#161b22"><title>0 on 2025-12-27</title></rect><rect class="c d24" x="366" y="24" width="11" height="11" rx="2.5" fill="#161b22"><title>0 on 2025-12-28</title></rect><rect class="c d25" x="366" y="38" width="11" height="11" rx="2.5" fill="#161b22"><title>0 on 2025-12-29</title></rect><rect class="c d26" x="366" y="52" width="11" height="11" rx="2.5" fill="#161b22"><title>0 on 2025-12-30</title></rect><rect class="c d27" x="366" y="66" width="11" height="11" rx="2.5" fill="#161b22"><title>0 on 2025-12-31</title></rect><rect class="c d28" x="366" y="80" width="11" height="11" rx="2.5" fill="#161b22"><title>0 on 2026-01-01</title></rect><rect class="c d29" x="366" y="94" width="11" height="11" rx="2.5" fill="#161b22"><title>0 on 2026-01-02</title></rect><rect class="c d30" x="366" y="108" width="11" height="11" rx="2.5" fill="#161b22"><title>0 on 2026-01-03</title></rect><rect class="c d25" x="380" y="24" width="11" height="11" rx="2.5" fill="#161b22"><title>0 on 2026-01-04</title></rect><rect class="c d26" x="380" y="38" width="11" height="11" rx="2.5" fill="#161b22"><title>0 on 2026-01-05</title></rect><rect class="c d27" x="380" y="52" width="11" height="11" rx="2.5" fill="#161b22"><title>0 on 2026-01-06</title></rect><rect class="c d28" x="380" y="66" width="11" height="11" rx="2.5" fill="#161b22"><title>0 on 2026-01-07</title></rect><rect class="c d29" x="380" y="80" width="11" height="11" rx="2.5" fill="#161b22"><title>0 on 2026-01-08</title></rect><rect class="c d30" x="380" y="94" width="11" height="11" rx="2.5" fill="#161b22"><title>0 on 2026-01-09</title></rect><rect class="c d31" x="380" y="108" width="11" height="11" rx="2.5" fill="#161b22"><title>0 on 2026-01-10</title></rect><rect class="c d26" x="394" y="24" width="11" height="11" rx="2.5" fill="#161b22"><title>0 on 2026-01-11</title></rect><rect class="c d27" x="394" y="38" width="11" height="11" rx="2.5" fill="#161b22"><title>0 on 2026-01-12</title></rect><rect class="c d28" x="394" y="52" width="11" height="11" rx="2.5" fill="#161b22"><title>0 on 2026-01-13</title></rect><rect class="c d29" x="394" y="66" width="11" height="11" rx="2.5" fill="#161b22"><title>0 on 2026-01-14</title></rect><rect class="c d30" x="394" y="80" width="11" height="11" rx="2.5" fill="#161b22"><title>0 on 2026-01-15</title></rect><rect class="c d31" x="394" y="94" width="11" height="11" rx="2.5" fill="#161b22"><title>0 on 2026-01-16</title></rect><rect class="c d32" x="394" y="108" width="11" height="11" rx="2.5" fill="#161b22"><title>0 on 2026-01-17</title></rect><rect class="c d27" x="408" y="24" width="11" height="11" rx="2.5" fill="#161b22"><title>0 on 2026-01-18</title></rect><rect class="c d28" x="408" y="38" width="11" height="11" rx="2.5" fill="#161b22"><title>0 on 2026-01-19</title></rect><rect class="c d29" x="408" y="52" width="11" height="11" rx="2.5" fill="#161b22"><title>0 on 2026-01-20</title></rect><rect class="c d30" x="408" y="66" width="11" height="11" rx="2.5" fill="#161b22"><title>0 on 2026-01-21</title></rect><rect class="c d31" x="408" y="80" width="11" height="11" rx="2.5" fill="#161b22"><title>0 on 2026-01-22</title></rect><rect class="c d32" x="408" y="94" width="11" height="11" rx="2.5" fill="#161b22"><title>0 on 2026-01-23</title></rect><rect class="c d33" x="408" y="108" width="11" height="11" rx="2.5" fill="#161b22"><title>0 on 2026-01-24</title></rect><rect class="c d28" x="422" y="24" width="11" height="11" rx="2.5" fill="#161b22"><title>0 on 2026-01-25</title></rect><rect class="c d29" x="422" y="38" width="11" height="11" rx="2.5" fill="#161b22"><title>0 on 2026-01-26</title></rect><rect class="c d30" x="422" y="52" width="11" height="11" rx="2.5" fill="#161b22"><title>0 on 2026-01-27</title></rect><rect class="c d31" x="422" y="66" width="11" height="11" rx="2.5" fill="#161b22"><title>0 on 2026-01-28</title></rect><rect class="c d32" x="422" y="80" width="11" height="11" rx="2.5" fill="#161b22"><title>0 on 2026-01-29</title></rect><rect class="c d33" x="422" y="94" width="11" height="11" rx="2.5" fill="#161b22"><title>0 on 2026-01-30</title></rect><rect class="c d34" x="422" y="108" width="11" height="11" rx="2.5" fill="#161b22"><title>0 on 2026-01-31</title></rect><rect class="c d29" x="436" y="24" width="11" height="11" rx="2.5" fill="#161b22"><title>0 on 2026-02-01</title></rect><rect class="c d30" x="436" y="38" width="11" height="11" rx="2.5" fill="#161b22"><title>0 on 2026-02-02</title></rect><rect class="c d31" x="436" y="52" width="11" height="11" rx="2.5" fill="#161b22"><title>0 on 2026-02-03</title></rect><rect class="c d32" x="436" y="66" width="11" height="11" rx="2.5" fill="#161b22"><title>0 on 2026-02-04</title></rect><rect class="c d33" x="436" y="80" width="11" height="11" rx="2.5" fill="#161b22"><title>0 on 2026-02-05</title></rect><rect class="c d34" x="436" y="94" width="11" height="11" rx="2.5" fill="#161b22"><title>0 on 2026-02-06</title></rect><rect class="c d35" x="436" y="108" width="11" height="11" rx="2.5" fill="#161b22"><title>0 on 2026-02-07</title></rect><rect class="c d30" x="450" y="24" width="11" height="11" rx="2.5" fill="#161b22"><title>0 on 2026-02-08</title></rect><rect class="c d31" x="450" y="38" width="11" height="11" rx="2.5" fill="#161b22"><title>0 on 2026-02-09</title></rect><rect class="c d32" x="450" y="52" width="11" height="11" rx="2.5" fill="#161b22"><title>0 on 2026-02-10</title></rect><rect class="c d33" x="450" y="66" width="11" height="11" rx="2.5" fill="#161b22"><title>0 on 2026-02-11</title></rect><rect class="c d34" x="450" y="80" width="11" height="11" rx="2.5" fill="#161b22"><title>0 on 2026-02-12</title></rect><rect class="c d35" x="450" y="94" width="11" height="11" rx="2.5" fill="#161b22"><title>0 on 2026-02-13</title></rect><rect class="c d36" x="450" y="108" width="11" height="11" rx="2.5" fill="#161b22"><title>0 on 2026-02-14</title></rect><rect class="c d31" x="464" y="24" width="11" height="11" rx="2.5" fill="#161b22"><title>0 on 2026-02-15</title></rect><rect class="c d32" x="464" y="38" width="11" height="11" rx="2.5" fill="#161b22"><title>0 on 2026-02-16</title></rect><rect class="c d33" x="464" y="52" width="11" height="11" rx="2.5" fill="#161b22"><title>0 on 2026-02-17</title></rect><rect class="c d34" x="464" y="66" width="11" height="11" rx="2.5" fill="#161b22"><title>0 on 2026-02-18</title></rect><rect class="c d35" x="464" y="80" width="11" height="11" rx="2.5" fill="#161b22"><title>0 on 2026-02-19</title></rect><rect class="c d36" x="464" y="94" width="11" height="11" rx="2.5" fill="#161b22"><title>0 on 2026-02-20</title></rect><rect class="c d37" x="464" y="108" width="11" height="11" rx="2.5" fill="#161b22"><title>0 on 2026-02-21</title></rect><rect class="c d32" x="478" y="24" width="11" height="11" rx="2.5" fill="#161b22"><title>0 on 2026-02-22</title></rect><rect class="c d33" x="478" y="38" width="11" height="11" rx="2.5" fill="#161b22"><title>0 on 2026-02-23</title></rect><rect class="c d34" x="478" y="52" width="11" height="11" rx="2.5" fill="#161b22"><title>0 on 2026-02-24</title></rect><rect class="c d35" x="478" y="66" width="11" height="11" rx="2.5" fill="#161b22"><title>0 on 2026-02-25</title></rect><rect class="c d36" x="478" y="80" width="11" height="11" rx="2.5" fill="#161b22"><title>0 on 2026-02-26</title></rect><rect class="c d37" x="478" y="94" width="11" height="11" rx="2.5" fill="#161b22"><title>0 on 2026-02-27</title></rect><rect class="c d38" x="478" y="108" width="11" height="11" rx="2.5" fill="#161b22"><title>0 on 2026-02-28</title></rect><rect class="c d33" x="492" y="24" width="11" height="11" rx="2.5" fill="#161b22"><title>0 on 2026-03-01</title></rect><rect class="c d34" x="492" y="38" width="11" height="11" rx="2.5" fill="#161b22"><title>0 on 2026-03-02</title></rect><rect class="c d35" x="492" y="52" width="11" height="11" rx="2.5" fill="#161b22"><title>0 on 2026-03-03</title></rect><rect class="c d36" x="492" y="66" width="11" height="11" rx="2.5" fill="#161b22"><title>0 on 2026-03-04</title></rect><rect class="c d37" x="492" y="80" width="11" height="11" rx="2.5" fill="#161b22"><title>0 on 2026-03-05</title></rect><rect class="c d38" x="492" y="94" width="11" height="11" rx="2.5" fill="#161b22"><title>0 on 2026-03-06</title></rect><rect class="c d39" x="492" y="108" width="11" height="11" rx="2.5" fill="#161b22"><title>0 on 2026-03-07</title></rect><rect class="c d34" x="506" y="24" width="11" height="11" rx="2.5" fill="#161b22"><title>0 on 2026-03-08</title></rect><rect class="c d35" x="506" y="38" width="11" height="11" rx="2.5" fill="#161b22"><title>0 on 2026-03-09</title></rect><rect class="c d36" x="506" y="52" width="11" height="11" rx="2.5" fill="#161b22"><title>0 on 2026-03-10</title></rect><rect class="c d37" x="506" y="66" width="11" height="11" rx="2.5" fill="#161b22"><title>0 on 2026-03-11</title></rect><rect class="c d38" x="506" y="80" width="11" height="11" rx="2.5" fill="#161b22"><title>0 on 2026-03-12</title></rect><rect class="c d39" x="506" y="94" width="11" height="11" rx="2.5" fill="#161b22"><title>0 on 2026-03-13</title></rect><rect class="c d40" x="506" y="108" width="11" height="11" rx="2.5" fill="#161b22"><title>0 on 2026-03-14</title></rect><rect class="c d35" x="520" y="24" width="11" height="11" rx="2.5" fill="#161b22"><title>0 on 2026-03-15</title></rect><rect class="c d36" x="520" y="38" width="11" height="11" rx="2.5" fill="#161b22"><title>0 on 2026-03-16</title></rect><rect class="c d37" x="520" y="52" width="11" height="11" rx="2.5" fill="#161b22"><title>0 on 2026-03-17</title></rect><rect class="c d38" x="520" y="66" width="11" height="11" rx="2.5" fill="#161b22"><title>0 on 2026-03-18</title></rect><rect class="c d39" x="520" y="80" width="11" height="11" rx="2.5" fill="#161b22"><title>0 on 2026-03-19</title></rect><rect class="c d40" x="520" y="94" width="11" height="11" rx="2.5" fill="#161b22"><title>0 on 2026-03-20</title></rect><rect class="c d41" x="520" y="108" width="11" height="11" rx="2.5" fill="#161b22"><title>0 on 2026-03-21</title></rect><rect class="c d36" x="534" y="24" width="11" height="11" rx="2.5" fill="#161b22"><title>0 on 2026-03-22</title></rect><rect class="c d37" x="534" y="38" width="11" height="11" rx="2.5" fill="#161b22"><title>0 on 2026-03-23</title></rect><rect class="c d38" x="534" y="52" width="11" height="11" rx="2.5" fill="#161b22"><title>0 on 2026-03-24</title></rect><rect class="c d39" x="534" y="66" width="11" height="11" rx="2.5" fill="#161b22"><title>0 on 2026-03-25</title></rect><rect class="c d40" x="534" y="80" width="11" height="11" rx="2.5" fill="#161b22"><title>0 on 2026-03-26</title></rect><rect class="c d41" x="534" y="94" width="11" height="11" rx="2.5" fill="#161b22"><title>0 on 2026-03-27</title></rect><rect class="c d42" x="534" y="108" width="11" height="11" rx="2.5" fill="#161b22"><title>0 on 2026-03-28</title></rect><rect class="c d37" x="548" y="24" width="11" height="11" rx="2.5" fill="#161b22"><title>0 on 2026-03-29</title></rect><rect class="c d38" x="548" y="38" width="11" height="11" rx="2.5" fill="#161b22"><title>0 on 2026-03-30</title></rect><rect class="c d39" x="548" y="52" width="11" height="11" rx="2.5" fill="#161b22"><title>0 on 2026-03-31</title></rect><rect class="c d40" x="548" y="66" width="11" height="11" rx="2.5" fill="#161b22"><title>0 on 2026-04-01</title></rect><rect class="c d41" x="548" y="80" width="11" height="11" rx="2.5" fill="#161b22"><title>0 on 2026-04-02</title></rect><rect class="c d42" x="548" y="94" width="11" height="11" rx="2.5" fill="#161b22"><title>0 on 2026-04-03</title></rect><rect class="c d43" x="548" y="108" width="11" height="11" rx="2.5" fill="#161b22"><title>0 on 2026-04-04</title></rect><rect class="c d38" x="562" y="24" width="11" height="11" rx="2.5" fill="#161b22"><title>0 on 2026-04-05</title></rect><rect class="c d39" x="562" y="38" width="11" height="11" rx="2.5" fill="#161b22"><title>0 on 2026-04-06</title></rect><rect class="c d40" x="562" y="52" width="11" height="11" rx="2.5" fill="#161b22"><title>0 on 2026-04-07</title></rect><rect class="c d41" x="562" y="66" width="11" height="11" rx="2.5" fill="#161b22"><title>0 on 2026-04-08</title></rect><rect class="c d42" x="562" y="80" width="11" height="11" rx="2.5" fill="#161b22"><title>0 on 2026-04-09</title></rect><rect class="c d43" x="562" y="94" width="11" height="11" rx="2.5" fill="#161b22"><title>0 on 2026-04-10</title></rect><rect class="c d44" x="562" y="108" width="11" height="11" rx="2.5" fill="#161b22"><title>0 on 2026-04-11</title></rect><rect class="c d39" x="576" y="24" width="11" height="11" rx="2.5" fill="#161b22"><title>0 on 2026-04-12</title></rect><rect class="c d40" x="576" y="38" width="11" height="11" rx="2.5" fill="#161b22"><title>0 on 2026-04-13</title></rect><rect class="c d41" x="576" y="52" width="11" height="11" rx="2.5" fill="#161b22"><title>0 on 2026-04-14</title></rect><rect class="c d42" x="576" y="66" width="11" height="11" rx="2.5" fill="#161b22"><title>0 on 2026-04-15</title></rect><rect class="c d43" x="576" y="80" width="11" height="11" rx="2.5" fill="#161b22"><title>0 on 2026-04-16</title></rect><rect class="c d44" x="576" y="94" width="11" height="11" rx="2.5" fill="#161b22"><title>0 on 2026-04-17</title></rect><rect class="c d45" x="576" y="108" width="11" height="11" rx="2.5" fill="#161b22"><title>0 on 2026-04-18</title></rect><rect class="c d40" x="590" y="24" width="11" height="11" rx="2.5" fill="#161b22"><title>0 on 2026-04-19</title></rect><rect class="c d41" x="590" y="38" width="11" height="11" rx="2.5" fill="#161b22"><title>0 on 2026-04-20</title></rect><rect class="c d42" x="590" y="52" width="11" height="11" rx="2.5" fill="#161b22"><title>0 on 2026-04-21</title></rect><rect class="c d43" x="590" y="66" width="11" height="11" rx="2.5" fill="#161b22"><title>0 on 2026-04-22</title></rect><rect class="c d44" x="590" y="80" width="11" height="11" rx="2.5" fill="#161b22"><title>0 on 2026-04-23</title></rect><rect class="c d45" x="590" y="94" width="11" height="11" rx="2.5" fill="#161b22"><title>0 on 2026-04-24</title></rect><rect class="c d46" x="590" y="108" width="11" height="11" rx="2.5" fill="#161b22"><title>0 on 2026-04-25</title></rect><rect class="c d41" x="604" y="24" width="11" height="11" rx="2.5" fill="#161b22"><title>0 on 2026-04-26</title></rect><rect class="c d42" x="604" y="38" width="11" height="11" rx="2.5" fill="#161b22"><title>0 on 2026-04-27</title></rect><rect class="c d43" x="604" y="52" width="11" height="11" rx="2.5" fill="#161b22"><title>0 on 2026-04-28</title></rect><rect class="c d44" x="604" y="66" width="11" height="11" rx="2.5" fill="#161b22"><title>0 on 2026-04-29</title></rect><rect class="c d45" x="604" y="80" width="11" height="11" rx="2.5" fill="#161b22"><title>0 on 2026-04-30</title></rect><rect class="c d46" x="604" y="94" width="11" height="11" rx="2.5" fill="#161b22"><title>0 on 2026-05-01</title></rect><rect class="c d47" x="604" y="108" width="11" height="11" rx="2.5" fill="#161b22"><title>0 on 2026-05-02</title></rect><rect class="c d42" x="618" y="24" width="11" height="11" rx="2.5" fill="#161b22"><title>0 on 2026-05-03</title></rect><rect class="c d43" x="618" y="38" width="11" height="11" rx="2.5" fill="#161b22"><title>0 on 2026-05-04</title></rect><rect class="c d44" x="618" y="52" width="11" height="11" rx="2.5" fill="#161b22"><title>0 on 2026-05-05</title></rect><rect class="c d45" x="618" y="66" width="11" height="11" rx="2.5" fill="#161b22"><title>0 on 2026-05-06</title></rect><rect class="c d46" x="618" y="80" width="11" height="11" rx="2.5" fill="#161b22"><title>0 on 2026-05-07</title></rect><rect class="c d47" x="618" y="94" width="11" height="11" rx="2.5" fill="#161b22"><title>0 on 2026-05-08</title></rect><rect class="c d48" x="618" y="108" width="11" height="11" rx="2.5" fill="#161b22"><title>0 on 2026-05-09</title></rect><rect class="c d43" x="632" y="24" width="11" height="11" rx="2.5" fill="#161b22"><title>0 on 2026-05-10</title></rect><rect class="c d44" x="632" y="38" width="11" height="11" rx="2.5" fill="#161b22"><title>0 on 2026-05-11</title></rect><rect class="c d45" x="632" y="52" width="11" height="11" rx="2.5" fill="#161b22"><title>0 on 2026-05-12</title></rect><rect class="c d46" x="632" y="66" width="11" height="11" rx="2.5" fill="#161b22"><title>0 on 2026-05-13</title></rect><rect class="c d47" x="632" y="80" width="11" height="11" rx="2.5" fill="#161b22"><title>0 on 2026-05-14</title></rect><rect class="c d48" x="632" y="94" width="11" height="11" rx="2.5" fill="#161b22"><title>0 on 2026-05-15</title></rect><rect class="c d49" x="632" y="108" width="11" height="11" rx="2.5" fill="#161b22"><title>0 on 2026-05-16</title></rect><rect class="c d44" x="646" y="24" width="11" height="11" rx="2.5" fill="#0e4429"><title>3 on 2026-05-17</title></rect><rect class="c d45" x="646" y="38" width="11" height="11" rx="2.5" fill="#161b22"><title>0 on 2026-05-18</title></rect><rect class="c d46" x="646" y="52" width="11" height="11" rx="2.5" fill="#161b22"><title>0 on 2026-05-19</title></rect><rect class="c d47" x="646" y="66" width="11" height="11" rx="2.5" fill="#161b22"><title>0 on 2026-05-20</title></rect><rect class="c d48" x="646" y="80" width="11" height="11" rx="2.5" fill="#161b22"><title>0 on 2026-05-21</title></rect><rect class="c d49" x="646" y="94" width="11" height="11" rx="2.5" fill="#161b22"><title>0 on 2026-05-22</title></rect><rect class="c d50" x="646" y="108" width="11" height="11" rx="2.5" fill="#161b22"><title>0 on 2026-05-23</title></rect><rect class="c d45" x="660" y="24" width="11" height="11" rx="2.5" fill="#161b22"><title>0 on 2026-05-24</title></rect><rect class="c d46" x="660" y="38" width="11" height="11" rx="2.5" fill="#161b22"><title>0 on 2026-05-25</title></rect><rect class="c d47" x="660" y="52" width="11" height="11" rx="2.5" fill="#006d32"><title>9 on 2026-05-26</title></rect><rect class="c d48" x="660" y="66" width="11" height="11" rx="2.5" fill="#006d32"><title>9 on 2026-05-27</title></rect><rect class="c d49" x="660" y="80" width="11" height="11" rx="2.5" fill="#0e4429"><title>2 on 2026-05-28</title></rect><rect class="c d50" x="660" y="94" width="11" height="11" rx="2.5" fill="#69f0a0"><title>44 on 2026-05-29</title></rect><rect class="c d51" x="660" y="108" width="11" height="11" rx="2.5" fill="#26a641"><title>15 on 2026-05-30</title></rect><rect class="c d46" x="674" y="24" width="11" height="11" rx="2.5" fill="#0e4429"><title>1 on 2026-05-31</title></rect><rect class="c d47" x="674" y="38" width="11" height="11" rx="2.5" fill="#0e4429"><title>3 on 2026-06-01</title></rect><rect class="c d48" x="674" y="52" width="11" height="11" rx="2.5" fill="#161b22"><title>0 on 2026-06-02</title></rect><rect class="c d49" x="674" y="66" width="11" height="11" rx="2.5" fill="#161b22"><title>0 on 2026-06-03</title></rect><rect class="c d50" x="674" y="80" width="11" height="11" rx="2.5" fill="#161b22"><title>0 on 2026-06-04</title></rect><rect class="c d51" x="674" y="94" width="11" height="11" rx="2.5" fill="#161b22"><title>0 on 2026-06-05</title></rect><rect class="c d52" x="674" y="108" width="11" height="11" rx="2.5" fill="#161b22"><title>0 on 2026-06-06</title></rect><rect class="c d47" x="688" y="24" width="11" height="11" rx="2.5" fill="#161b22"><title>0 on 2026-06-07</title></rect><rect class="c d48" x="688" y="38" width="11" height="11" rx="2.5" fill="#161b22"><title>0 on 2026-06-08</title></rect><rect class="c d49" x="688" y="52" width="11" height="11" rx="2.5" fill="#161b22"><title>0 on 2026-06-09</title></rect><rect class="c d50" x="688" y="66" width="11" height="11" rx="2.5" fill="#161b22"><title>0 on 2026-06-10</title></rect><rect class="c d51" x="688" y="80" width="11" height="11" rx="2.5" fill="#006d32"><title>12 on 2026-06-11</title></rect><rect class="c d52" x="688" y="94" width="11" height="11" rx="2.5" fill="#39d353"><title>21 on 2026-06-12</title></rect><rect class="c d53" x="688" y="108" width="11" height="11" rx="2.5" fill="#39d353"><title>22 on 2026-06-13</title></rect><rect class="c d48" x="702" y="24" width="11" height="11" rx="2.5" fill="#161b22"><title>0 on 2026-06-14</title></rect><rect class="c d49" x="702" y="38" width="11" height="11" rx="2.5" fill="#161b22"><title>0 on 2026-06-15</title></rect><rect class="c d50" x="702" y="52" width="11" height="11" rx="2.5" fill="#161b22"><title>0 on 2026-06-16</title></rect><rect class="c d51" x="702" y="66" width="11" height="11" rx="2.5" fill="#161b22"><title>0 on 2026-06-17</title></rect><rect class="c d52" x="702" y="80" width="11" height="11" rx="2.5" fill="#006d32"><title>10 on 2026-06-18</title></rect><rect class="c d53" x="702" y="94" width="11" height="11" rx="2.5" fill="#161b22"><title>0 on 2026-06-19</title></rect><rect class="c d54" x="702" y="108" width="11" height="11" rx="2.5" fill="#161b22"><title>0 on 2026-06-20</title></rect><rect class="c d49" x="716" y="24" width="11" height="11" rx="2.5" fill="#161b22"><title>0 on 2026-06-21</title></rect><rect class="c d50" x="716" y="38" width="11" height="11" rx="2.5" fill="#161b22"><title>0 on 2026-06-22</title></rect><rect class="c d51" x="716" y="52" width="11" height="11" rx="2.5" fill="#0e4429"><title>1 on 2026-06-23</title></rect><rect class="c d52" x="716" y="66" width="11" height="11" rx="2.5" fill="#161b22"><title>0 on 2026-06-24</title></rect><rect class="c d53" x="716" y="80" width="11" height="11" rx="2.5" fill="#161b22"><title>0 on 2026-06-25</title></rect><rect class="c d54" x="716" y="94" width="11" height="11" rx="2.5" fill="#161b22"><title>0 on 2026-06-26</title></rect><rect class="c d55" x="716" y="108" width="11" height="11" rx="2.5" fill="#161b22"><title>0 on 2026-06-27</title></rect><rect class="c d50" x="730" y="24" width="11" height="11" rx="2.5" fill="#161b22"><title>0 on 2026-06-28</title></rect><rect class="c d51" x="730" y="38" width="11" height="11" rx="2.5" fill="#161b22"><title>0 on 2026-06-29</title></rect><rect class="c d52" x="730" y="52" width="11" height="11" rx="2.5" fill="#006d32"><title>8 on 2026-06-30</title></rect><rect class="c d53" x="730" y="66" width="11" height="11" rx="2.5" fill="#161b22"><title>0 on 2026-07-01</title></rect><rect class="c d54" x="730" y="80" width="11" height="11" rx="2.5" fill="#39d353"><title>24 on 2026-07-02</title></rect><rect class="c d55" x="730" y="94" width="11" height="11" rx="2.5" fill="#161b22"><title>0 on 2026-07-03</title></rect><rect class="c d56" x="730" y="108" width="11" height="11" rx="2.5" fill="#161b22"><title>0 on 2026-07-04</title></rect><rect class="c d51" x="744" y="24" width="11" height="11" rx="2.5" fill="#161b22"><title>0 on 2026-07-05</title></rect><rect class="c d52" x="744" y="38" width="11" height="11" rx="2.5" fill="#161b22"><title>0 on 2026-07-06</title></rect><rect class="c d53" x="744" y="52" width="11" height="11" rx="2.5" fill="#161b22"><title>0 on 2026-07-07</title></rect><rect class="c d54" x="744" y="66" width="11" height="11" rx="2.5" fill="#161b22"><title>0 on 2026-07-08</title></rect><rect class="c d55" x="744" y="80" width="11" height="11" rx="2.5" fill="#161b22"><title>0 on 2026-07-09</title></rect><rect class="c d56" x="744" y="94" width="11" height="11" rx="2.5" fill="#161b22"><title>0 on 2026-07-10</title></rect><rect class="c d57" x="744" y="108" width="11" height="11" rx="2.5" fill="#0e4429"><title>3 on 2026-07-11</title></rect><rect class="c d52" x="758" y="24" width="11" height="11" rx="2.5" fill="#26a641"><title>15 on 2026-07-12</title></rect><rect class="c d53" x="758" y="38" width="11" height="11" rx="2.5" fill="#39d353"><title>25 on 2026-07-13</title></rect><rect class="c d54" x="758" y="52" width="11" height="11" rx="2.5" fill="#39d353"><title>27 on 2026-07-14</title></rect><rect class="c d55" x="758" y="66" width="11" height="11" rx="2.5" fill="#161b22"><title>0 on 2026-07-15</title></rect><rect class="c d56" x="758" y="80" width="11" height="11" rx="2.5" fill="#161b22"><title>0 on 2026-07-16</title></rect><rect class="c d57" x="758" y="94" width="11" height="11" rx="2.5" fill="#006d32"><title>7 on 2026-07-17</title></rect><rect class="c d58" x="758" y="108" width="11" height="11" rx="2.5" fill="#0e4429"><title>2 on 2026-07-18</title></rect>
  <text x="623" y="144" class="legend" text-anchor="end">Less</text><rect x="629" y="135" width="11" height="11" rx="2.5" fill="#161b22"/><rect x="643" y="135" width="11" height="11" rx="2.5" fill="#0e4429"/><rect x="657" y="135" width="11" height="11" rx="2.5" fill="#006d32"/><rect x="671" y="135" width="11" height="11" rx="2.5" fill="#26a641"/><rect x="685" y="135" width="11" height="11" rx="2.5" fill="#39d353"/><text x="703" y="144" class="legend">More</text>
  <text x="30" y="144" class="foot"><tspan class="num">267</tspan> contributions in the last year<tspan class="dim">  ·  streak 2d · longest 7d</tspan></text>
</svg>
