<svg xmlns="http://www.w3.org/2000/svg" width="470" height="310"
     viewBox="0 0 470 310" font-family="ui-monospace, SFMono-Regular, Menlo, Consolas, monospace" role="img"
     aria-label="esteban3114@github info card">
  <style>
    .bg { fill: none; stroke: #30363d; stroke-width: 1; }
    .bar { fill: #161b22; }
    .chrome { fill: #6e7681; font-size: 11px; letter-spacing: .5px; }
    .head { fill: #e6edf3; font-size: 16px; font-weight: 700; }
    .tag  { fill: #7d8590; font-size: 12px; }
    .rule { fill: #30363d; font-size: 13px; }
    .key  { font-size: 13px; font-weight: 600; }
    .val  { fill: #c9d1d9; font-size: 13px; }
    .row{opacity:0;transform:translateX(-8px);animation:slidein .45s ease-out forwards}@keyframes slidein{to{opacity:1;transform:none}}@media (prefers-reduced-motion:reduce){.row{opacity:1;transform:none;animation:none}}
  </style>
  <rect class="bg" x="0.5" y="0.5" width="469" height="309" rx="12"/><path class="bar" d="M0.5 12.5 A12 12 0 0 1 12.5 0.5 L457.5 0.5 A12 12 0 0 1 469.5 12.5 L469.5 34 L0.5 34 Z"/><circle cx="20" cy="17.0" r="6" fill="#ff5f56"/><circle cx="40" cy="17.0" r="6" fill="#ffbd2e"/><circle cx="60" cy="17.0" r="6" fill="#27c93f"/><text x="235.0" y="21.0" class="chrome" text-anchor="middle">— neofetch —</text><g class="row" style="animation-delay:0.00s"><text x="22" y="60" class="head">esteban3114@github</text></g><g class="row" style="animation-delay:0.11s"><text x="22" y="78" class="tag">builder · self-hoster · CPGE</text></g><g class="row" style="animation-delay:0.22s"><text x="22" y="90" class="rule">--------------------------------------------</text></g><g class="row" style="animation-delay:0.33s"><text x="22" y="114" class="key" fill="#39d353">Now</text><text x="130" y="114" class="val">hq-bot · student-os</text></g><g class="row" style="animation-delay:0.44s"><text x="22" y="140" class="key" fill="#58a6ff">Stack</text><text x="130" y="140" class="val">Python · SvelteKit · TypeScript</text></g><g class="row" style="animation-delay:0.55s"><text x="22" y="166" class="key" fill="#d2a8ff">Infra</text><text x="130" y="166" class="val">Docker · Supabase · GH Actions</text></g><g class="row" style="animation-delay:0.66s"><text x="22" y="192" class="key" fill="#f0883e">Focus</text><text x="130" y="192" class="val">automation · self-hosting</text></g><g class="row" style="animation-delay:0.77s"><text x="22" y="218" class="key" fill="#ff7b72">Highlights</text><text x="130" y="218" class="val">full-auto issue → PR → deploy</text></g><g class="row" style="animation-delay:0.88s"><text x="22" y="244" class="key" fill="#79c0ff">Contact</text><text x="130" y="244" class="val">github.com/esteban3114</text></g><g class="row" style="animation-delay:0.99s"><rect x="22" y="276" width="15" height="9" rx="1.5" fill="#161b22"/></g><g class="row" style="animation-delay:0.99s"><rect x="40" y="276" width="15" height="9" rx="1.5" fill="#ff7b72"/></g><g class="row" style="animation-delay:0.99s"><rect x="58" y="276" width="15" height="9" rx="1.5" fill="#3fb950"/></g><g class="row" style="animation-delay:0.99s"><rect x="76" y="276" width="15" height="9" rx="1.5" fill="#d29922"/></g><g class="row" style="animation-delay:0.99s"><rect x="94" y="276" width="15" height="9" rx="1.5" fill="#58a6ff"/></g><g class="row" style="animation-delay:0.99s"><rect x="112" y="276" width="15" height="9" rx="1.5" fill="#bc8cff"/></g><g class="row" style="animation-delay:0.99s"><rect x="130" y="276" width="15" height="9" rx="1.5" fill="#39c5cf"/></g><g class="row" style="animation-delay:0.99s"><rect x="148" y="276" width="15" height="9" rx="1.5" fill="#e6edf3"/></g><g class="row" style="animation-delay:1.10s"><rect x="22" y="288" width="15" height="9" rx="1.5" fill="#0c0e12"/></g><g class="row" style="animation-delay:1.10s"><rect x="40" y="288" width="15" height="9" rx="1.5" fill="#8c433e"/></g><g class="row" style="animation-delay:1.10s"><rect x="58" y="288" width="15" height="9" rx="1.5" fill="#22652c"/></g><g class="row" style="animation-delay:1.10s"><rect x="76" y="288" width="15" height="9" rx="1.5" fill="#735412"/></g><g class="row" style="animation-delay:1.10s"><rect x="94" y="288" width="15" height="9" rx="1.5" fill="#305b8c"/></g><g class="row" style="animation-delay:1.10s"><rect x="112" y="288" width="15" height="9" rx="1.5" fill="#674d8c"/></g><g class="row" style="animation-delay:1.10s"><rect x="130" y="288" width="15" height="9" rx="1.5" fill="#1f6c71"/></g><g class="row" style="animation-delay:1.10s"><rect x="148" y="288" width="15" height="9" rx="1.5" fill="#7e8285"/></g>
</svg>
